# Blender 3.5.0
# www.blender.org
mtllib door_fw.mtl
o door_fw
v -1.499999 2.999997 -0.300000
v -1.499999 2.999997 0.299999
v -1.499999 -0.000000 -0.300000
v -1.499999 0.000000 0.300000
v 1.499999 -0.000000 -0.300000
v 1.499999 0.000000 0.300000
v 1.499999 2.999997 -0.300000
v 1.499999 2.999997 0.299999
v 1.499999 -0.000000 -0.300000
v -1.499999 -0.000000 -0.300000
v 1.499999 0.000000 0.300000
v -1.499999 0.000000 0.300000
v 1.499999 2.999997 -0.300000
v -1.499999 2.999997 -0.300000
v 1.499999 -0.000000 -0.300000
v -1.499999 -0.000000 -0.300000
v 1.499999 2.999997 0.299999
v -1.499999 2.999997 0.299999
v 1.499999 2.999997 -0.300000
v -1.499999 2.999997 -0.300000
vn -1.0000 -0.0000 -0.0000
vn 1.0000 -0.0000 -0.0000
vn -0.0000 -1.0000 -0.0000
vn -0.0000 -0.0000 -1.0000
vn -0.0000 1.0000 -0.0000
vn -0.0000 -0.0000 1.0000
vt -0.281250 1.000000
vt 0.000000 1.000000
vt -0.281250 0.000000
vt 0.000000 0.000000
vt 1.234375 0.000000
vt 1.000000 0.000000
vt 1.234375 1.000000
vt 1.000000 1.000000
vt 1.000000 3.000000
vt 0.000000 3.000000
vt 1.000000 3.019531
vt 0.000000 3.019531
vt 0.000000 1.000000
vt 1.000000 1.000000
vt 0.000000 0.000000
vt 1.000000 0.000000
vt 0.000000 1.000000
vt 0.000000 0.000000
vt -0.281250 1.000000
vt -0.281250 0.000000
s 0
usemtl lambert3
f 3/3/1 2/2/1 1/1/1
f 3/3/1 4/4/1 2/2/1
f 7/7/2 6/6/2 5/5/2
f 7/7/2 8/8/2 6/6/2
f 11/11/3 10/10/3 9/9/3
f 11/11/3 12/12/3 10/10/3
f 15/15/4 14/14/4 13/13/4
f 15/15/4 16/16/4 14/14/4
f 19/19/5 18/18/5 17/17/5
f 19/19/5 20/20/5 18/18/5
f 8/8/6 4/4/6 6/6/6
f 8/8/6 2/2/6 4/4/6
