# Blender v2.90.1 OBJ File: ''
# www.blender.org
mtllib CUT_CROWBAR_NXG.mtl
o CUT_CROWBAR_NXG0000
v -0.014061 0.063232 -0.003496
v -0.014061 0.056396 0.008102
v -0.014076 0.074707 0.008179
v 0.014076 0.056549 0.008186
v 0.014076 0.063232 -0.003479
v 0.014069 0.074707 0.008186
v -0.014076 0.074707 0.008179
v -0.014061 0.056396 0.008102
v -0.005802 -0.077942 0.016434
v -0.005806 0.074707 0.016434
v -0.014076 0.074707 0.008179
v 0.005833 -0.077942 0.016418
v -0.014061 0.056396 0.008102
v -0.014053 -0.077942 0.006912
v -0.014061 -0.077942 -0.002228
v -0.014061 0.063232 -0.003496
v -0.005806 0.062988 -0.011726
v -0.005802 -0.077942 -0.011726
v 0.005836 0.062988 -0.011734
v 0.005833 -0.077942 -0.011734
v 0.014076 -0.077942 -0.002213
v 0.014076 0.063232 -0.003479
v 0.014076 0.056549 0.008186
v 0.014069 -0.077942 0.006927
v 0.005836 0.074707 0.016418
v 0.014069 0.074707 0.008186
v 0.014076 0.056549 0.008186
v 0.014069 0.074707 0.008186
v -0.014053 0.126221 -0.046906
v -0.014069 0.132935 -0.046875
v 0.014069 0.132935 -0.046906
v 0.014053 0.126221 -0.046875
v -0.005817 0.074707 -0.003496
v -0.005806 0.062988 -0.011726
v -0.014061 0.063232 -0.003496
v -0.014076 0.074707 0.008179
v -0.005806 0.062988 -0.011726
v -0.005817 0.074707 -0.003496
v 0.005825 0.074707 -0.003496
v 0.005836 0.062988 -0.011734
v 0.005825 0.074707 -0.003496
v 0.014069 0.074707 0.008186
v 0.014076 0.063232 -0.003479
v 0.005836 0.062988 -0.011734
v -0.014038 -0.141480 0.037750
v -0.014053 -0.144653 0.032135
v 0.014076 -0.144653 0.032166
v 0.014061 -0.141357 0.037750
v -0.014053 -0.077942 0.006912
v -0.014061 -0.077942 -0.002228
v -0.014053 -0.084290 0.006298
v -0.005802 -0.077942 0.016434
v -0.014061 -0.088867 -0.001615
v -0.014038 -0.141480 0.037750
v 0.014061 -0.141357 0.037750
v 0.005833 -0.077942 0.016418
v -0.014053 -0.144653 0.032135
v -0.005802 -0.093628 -0.009834
v -0.005802 -0.077942 -0.011726
v 0.005833 -0.093628 -0.009842
v 0.014076 -0.144653 0.032166
v 0.014076 -0.088867 -0.001600
v 0.014069 -0.084290 0.006317
v 0.014069 -0.077942 0.006927
v 0.014076 -0.077942 -0.002213
v 0.005833 -0.077942 -0.011734
v -0.005817 0.074707 -0.003496
v -0.005817 0.095032 0.015244
v 0.005825 0.074707 -0.003496
v -0.014076 0.074707 0.008179
v 0.005825 0.095032 0.015251
v 0.014069 0.074707 0.008186
v -0.005817 0.105774 0.018738
v -0.014076 0.090881 0.022385
v -0.014069 0.069275 0.017624
v -0.014061 0.056396 0.008102
v -0.005806 0.056549 0.016434
v -0.005817 0.067017 0.025528
v -0.014069 0.085083 0.032501
v -0.014076 0.105774 0.026978
v -0.005817 0.114563 0.014565
v 0.005825 0.105774 0.018738
v 0.014061 0.090942 0.022369
v 0.014069 0.074707 0.017593
v 0.014076 0.056549 0.008186
v 0.005836 0.056549 0.016418
v 0.005825 0.067017 0.025543
v 0.005825 0.080933 0.039642
v -0.005817 0.080933 0.039612
v -0.014069 0.105774 0.038666
v -0.014076 0.121704 0.018692
v -0.014069 0.131836 0.024536
v -0.005817 0.105774 0.046875
v 0.005825 0.105774 0.046906
v 0.014069 0.105774 0.038635
v 0.014069 0.085083 0.032471
v 0.014061 0.105774 0.026978
v 0.005825 0.114563 0.014572
v 0.014061 0.121704 0.018692
v 0.014069 0.131836 0.024521
v 0.005825 0.138916 0.028656
v -0.005817 0.138916 0.028641
v 0.005161 0.144653 0.001114
v 0.012466 0.137329 0.001101
v 0.012466 0.126953 0.001101
v 0.014069 0.132935 -0.046906
v -0.014069 0.132935 -0.046875
v -0.005154 0.144653 0.001101
v -0.012474 0.137329 0.001101
v -0.012482 0.126953 0.001101
v -0.005154 0.119690 0.001101
v -0.014053 0.126221 -0.046906
v 0.014053 0.126221 -0.046875
v 0.005161 0.119690 0.001114
vt 0.178633 0.812748
vt 0.230843 0.781865
vt 0.230843 0.865187
vt 0.126355 0.867143
vt 0.065986 0.867143
vt 0.085821 0.795450
vt 0.909483 1.000000
vt 0.904715 0.916818
vt 0.909483 0.304455
vt 0.963203 0.695545
vt 0.926338 0.001942
vt 0.963203 0.000000
vt 0.852436 0.304476
vt 0.852436 0.972735
vt 0.800189 0.972714
vt 0.547289 0.642322
vt 0.584549 0.031106
vt 0.589893 0.642392
vt 0.630936 0.642392
vt 0.636630 0.000000
vt 0.673741 0.001041
vt 0.673741 0.642323
vt 0.904715 0.304455
vt 0.904715 0.938109
vt 0.852436 0.938112
vt 0.852468 0.304458
vt 0.800157 0.000072
vt 0.800158 0.641354
vt 0.757235 0.000000
vt 0.762920 0.642392
vt 0.710538 0.611983
vt 0.716192 0.000000
vt 0.673741 0.000073
vt 0.800157 0.304455
vt 1.000000 0.000000
vt 1.000000 0.694607
vt 0.963203 0.000072
vt 0.926338 0.999991
vt 0.921967 0.386962
vt 0.926338 0.304455
vt 0.288441 0.908790
vt 0.258672 0.908868
vt 0.258629 0.780830
vt 0.288441 0.780897
vt 0.547387 0.888007
vt 0.559012 0.823919
vt 0.584293 0.851469
vt 0.584293 0.925959
vt 0.667603 0.876894
vt 0.621288 0.876944
vt 0.621294 0.823969
vt 0.667603 0.823919
vt 0.000000 0.833416
vt 0.036957 0.795450
vt 0.036957 0.869907
vt 0.011573 0.897535
vt 0.037021 0.795585
vt 0.065376 0.795450
vt 0.065571 0.923447
vt 0.036957 0.923447
vt 0.501461 0.753565
vt 0.462555 0.766809
vt 0.489769 0.727073
vt 0.541869 0.739883
vt 0.449541 0.718796
vt 0.541869 0.434811
vt 0.926338 0.304455
vt 0.800157 0.304455
vt 0.888091 0.000000
vt 0.835844 0.000203
vt 0.513430 0.429261
vt 0.407622 0.710285
vt 0.421999 0.780688
vt 0.163380 0.523067
vt 0.163368 0.451215
vt 0.215627 0.523052
vt 0.126355 0.781865
vt 0.252669 0.781865
vt 0.379134 0.780830
vt 0.273384 0.499651
vt 0.315421 0.491217
vt 0.407622 0.774729
vt 0.355673 0.482981
vt 0.407622 0.470158
vt 0.367370 0.456493
vt 0.328475 0.443215
vt 0.287821 0.429261
vt 0.215615 0.451200
vt 0.126355 0.868743
vt 0.126355 0.781903
vt 0.178633 0.868736
vt 0.414810 0.310248
vt 0.537395 0.330129
vt 0.496133 0.363155
vt 0.178633 0.781865
vt 0.264073 0.121010
vt 0.141434 0.140680
vt 0.222827 0.087888
vt 0.288444 0.818420
vt 0.333694 0.818416
vt 0.288441 0.871396
vt 0.372635 0.281691
vt 0.401077 0.345345
vt 0.477912 0.409167
vt 0.547289 0.428389
vt 0.673741 0.752709
vt 0.673706 0.823919
vt 0.636640 0.794943
vt 0.636689 0.732428
vt 0.673741 0.654389
vt 0.381506 0.394555
vt 0.343490 0.305045
vt 0.328002 0.780830
vt 0.375574 0.818416
vt 0.333696 0.871391
vt 0.099240 0.169192
vt 0.127656 0.105834
vt 0.189685 0.061348
vt 0.273384 0.023063
vt 0.621288 0.823919
vt 0.621288 0.910564
vt 0.584293 0.852106
vt 0.183176 0.011627
vt 0.244470 0.000000
vt 0.584361 0.794997
vt 0.584410 0.732376
vt 0.584410 0.642392
vt 0.636689 0.642495
vt 0.368034 0.429261
vt 0.302262 0.337956
vt 0.328450 0.224772
vt 0.404408 0.780830
vt 0.279681 0.205012
vt 0.673741 0.883989
vt 0.673741 0.752354
vt 0.710802 0.742162
vt 0.273384 0.360921
vt 0.710790 0.642431
vt 0.763081 0.742122
vt 0.763069 0.642392
vt 0.000000 0.089720
vt 0.094757 0.021530
vt 0.029052 0.112893
vt 0.108378 0.056415
vt 0.547387 0.654491
vt 0.070121 0.145782
vt 0.375571 0.871391
vt 0.328007 0.908864
vt 0.404413 0.908864
vt 0.054960 0.226031
vt 0.006213 0.245757
vt 0.800096 0.752389
vt 0.800096 0.884003
vt 0.763080 0.909866
vt 0.710802 0.909886
vt 0.089339 0.451200
vt 0.086360 0.576063
vt 0.037060 0.451268
vt 0.126355 0.470563
vt 0.053088 0.357730
vt 0.073448 0.331475
vt 0.102337 0.294432
vt 0.089446 0.212323
vt 0.254800 0.451200
vt 0.126355 0.795450
vt 0.000000 0.795308
vt 0.040040 0.576122
vt 0.000000 0.470495
vt 0.326814 0.093046
vt 0.347096 0.119359
vt 0.528522 0.000000
vt 0.375930 0.156447
vt 0.362931 0.238525
vt 0.396183 0.182274
vt 0.547289 0.023911
vt 0.501805 0.780693
vt 0.541869 0.925383
vt 0.415658 0.925383
vt 0.455485 0.780688
vt 0.407622 0.821438
vt 0.407615 0.868375
vt 0.122592 0.268610
vt 0.273384 0.427144
vn -0.9999 -0.0079 -0.0079
vn 1.0000 -0.0000 -0.0000
vn -0.7342 -0.0079 0.6789
vn -0.9327 -0.0078 0.3605
vn -0.4025 -0.0079 0.9154
vn 0.3958 -0.0079 0.9183
vn -0.9327 -0.0078 0.3606
vn -0.9300 -0.0078 -0.3674
vn -0.9301 -0.0078 -0.3673
vn -0.3996 -0.0078 -0.9167
vn 0.3930 -0.0079 -0.9195
vn 0.9290 -0.0079 -0.3700
vn 0.9317 -0.0079 0.3632
vn 0.7305 -0.0079 0.6829
vn -0.0000 -0.0079 -1.0000
vn -0.6736 0.4778 -0.5639
vn -0.0079 0.5692 -0.8222
vn 0.6693 0.4803 -0.5669
vn 0.0000 -0.8678 0.4970
vn 0.0000 -0.8677 0.4970
vn -0.9372 -0.0394 0.3465
vn -0.9320 -0.0391 -0.3603
vn -0.9526 0.0551 0.2992
vn -0.5920 0.1973 0.7814
vn -0.9382 -0.1095 -0.3284
vn -0.7634 0.2440 0.5981
vn 0.7601 0.2454 0.6017
vn 0.5868 0.1982 0.7851
vn -0.7263 -0.4061 -0.5545
vn -0.4224 -0.3285 -0.8448
vn -0.4070 -0.1017 -0.9078
vn 0.4159 -0.3296 -0.8476
vn 0.7226 -0.4084 -0.5577
vn 0.9372 -0.1103 -0.3308
vn 0.9519 0.0555 0.3014
vn 0.9362 -0.0397 0.3491
vn 0.9310 -0.0394 -0.3629
vn 0.4004 -0.1021 -0.9107
vn -0.3848 0.6205 -0.6833
vn -0.3920 0.4547 -0.7997
vn 0.3849 0.6205 -0.6833
vn -0.9680 0.1653 -0.1889
vn 0.3854 0.4561 -0.8021
vn 0.9675 0.1665 -0.1903
vn -0.3853 -0.0708 -0.9201
vn -0.9266 0.1806 -0.3298
vn -0.9113 -0.2750 0.3064
vn -0.9088 -0.2664 0.3212
vn -0.3463 -0.6060 0.7162
vn -0.3609 -0.6355 0.6826
vn -0.9239 -0.1957 0.3288
vn -0.9256 -0.0392 -0.3765
vn -0.3850 -0.6758 -0.6286
vn 0.3853 -0.0708 -0.9201
vn 0.9255 0.1819 -0.3322
vn 0.9354 -0.2378 0.2616
vn 0.9316 -0.2053 0.3000
vn 0.3957 -0.5698 0.7202
vn 0.4023 -0.6232 0.6706
vn 0.4016 -0.4804 0.7797
vn -0.3849 -0.4714 0.7935
vn -0.9283 0.0393 0.3697
vn -0.9189 -0.2749 -0.2828
vn -0.9341 0.2983 0.1962
vn -0.3937 0.1024 0.9135
vn 0.3871 0.1027 0.9163
vn 0.9272 0.0396 0.3725
vn 0.9331 -0.1977 0.3005
vn 0.9244 -0.0395 -0.3793
vn 0.3783 -0.6778 -0.6305
vn 0.9177 -0.2769 -0.2848
vn 0.9331 0.3005 0.1977
vn 0.3897 0.7396 0.5487
vn -0.3964 0.7373 0.5470
vn 0.3795 0.9251 0.0079
vn 0.9211 0.3891 0.0079
vn 0.9250 -0.3716 -0.0791
vn 0.7106 0.6948 -0.1105
vn -0.7145 0.6909 -0.1099
vn -0.3863 0.9224 0.0079
vn -0.9224 0.3863 0.0079
vn -0.9262 -0.3689 -0.0785
vn -0.3838 -0.9007 -0.2036
vn -0.7068 -0.7067 -0.0314
vn 0.7028 -0.7107 -0.0316
vn 0.3771 -0.9034 -0.2042
usemtl mtl_105_0_0_76
s 1
f 1/1/1 2/2/1 3/3/1
f 4/4/2 5/5/2 6/6/2
f 7/7/3 8/8/4 9/9/5
f 9/10/5 10/11/5 11/12/3
f 10/13/5 9/14/5 12/15/6
f 9/16/5 13/17/7 14/18/4
f 14/18/4 13/17/7 15/19/8
f 15/19/8 13/17/7 16/20/9
f 15/19/8 16/20/9 17/21/10
f 15/19/8 17/21/10 18/22/10
f 18/23/10 17/24/10 19/25/11
f 18/23/10 19/25/11 20/26/11
f 20/27/11 19/28/11 21/29/12
f 19/28/11 22/30/12 21/29/12
f 21/29/12 22/30/12 23/31/13
f 21/29/12 23/31/13 24/32/13
f 24/32/13 23/31/13 12/33/6
f 12/15/6 25/34/6 10/13/5
f 25/35/6 12/36/6 26/37/14
f 12/38/6 27/39/13 28/40/14
f 29/41/15 30/42/15 31/43/15
f 29/41/15 31/43/15 32/44/15
f 33/45/16 34/46/16 35/47/16
f 33/45/16 35/47/16 36/48/16
f 37/49/17 38/50/17 39/51/17
f 37/49/17 39/51/17 40/52/17
f 41/53/18 42/54/18 43/55/18
f 41/53/18 43/55/18 44/56/18
f 45/57/19 46/58/19 47/59/19
f 45/57/19 47/59/19 48/60/20
f 49/61/21 50/62/22 51/63/23
f 49/61/21 51/63/23 52/64/24
f 50/62/22 53/65/25 51/63/23
f 51/63/23 53/65/25 54/66/26
f 51/63/23 54/66/26 52/64/24
f 54/67/26 55/68/27 52/69/24
f 55/68/27 56/70/28 52/69/24
f 54/66/26 53/65/25 57/71/29
f 57/71/29 53/65/25 58/72/30
f 58/72/30 53/65/25 59/73/31
f 59/73/31 53/65/25 50/62/22
f 58/74/30 59/75/31 60/76/32
f 58/74/30 60/76/32 57/77/29
f 57/77/29 60/76/32 61/78/33
f 61/79/33 60/80/32 62/81/34
f 61/79/33 62/81/34 55/82/27
f 62/81/34 63/83/35 55/82/27
f 55/82/27 63/83/35 56/84/28
f 56/84/28 63/83/35 64/85/36
f 64/85/36 63/83/35 65/86/37
f 63/83/35 62/81/34 65/86/37
f 65/86/37 62/81/34 66/87/38
f 62/81/34 60/80/32 66/87/38
f 66/88/38 60/76/32 59/75/31
f 67/89/39 68/90/40 69/91/41
f 68/92/40 67/93/39 70/94/42
f 69/91/41 68/90/40 71/95/43
f 69/96/41 71/97/43 72/98/44
f 68/99/40 73/100/45 71/101/43
f 73/102/45 68/92/40 74/103/46
f 74/103/46 68/92/40 70/94/42
f 74/103/46 70/94/42 75/104/47
f 75/104/47 70/94/42 76/105/48
f 75/106/47 76/107/48 77/108/49
f 75/106/47 77/108/49 78/109/50
f 75/106/47 78/109/50 79/110/51
f 75/104/47 79/111/51 74/103/46
f 74/103/46 79/111/51 80/112/52
f 74/103/46 80/112/52 73/102/45
f 73/100/45 80/113/52 81/114/53
f 73/100/45 81/114/53 82/115/54
f 73/100/45 82/115/54 71/101/43
f 71/97/43 82/116/54 83/117/55
f 71/97/43 83/117/55 72/98/44
f 72/98/44 83/117/55 84/118/56
f 72/98/44 84/118/56 85/119/57
f 85/120/57 84/121/56 86/122/58
f 84/118/56 87/123/59 86/124/58
f 86/125/58 87/126/59 77/108/49
f 87/126/59 78/109/50 77/108/49
f 78/109/50 87/126/59 88/127/60
f 78/109/50 88/127/60 89/128/61
f 78/109/50 89/128/61 79/110/51
f 79/111/51 89/129/61 90/130/62
f 79/111/51 90/130/62 80/112/52
f 80/112/52 90/130/62 91/131/63
f 80/113/52 91/132/63 81/114/53
f 90/130/62 92/133/64 91/131/63
f 92/134/64 90/135/62 93/136/65
f 93/137/65 90/130/62 89/129/61
f 93/136/65 89/138/61 94/139/66
f 94/139/66 89/138/61 88/140/60
f 94/141/66 88/142/60 95/143/67
f 95/143/67 88/142/60 96/144/68
f 96/145/68 88/127/60 87/126/59
f 96/144/68 87/123/59 84/118/56
f 96/144/68 84/118/56 83/117/55
f 96/144/68 83/117/55 97/146/69
f 97/146/69 83/117/55 82/116/54
f 96/144/68 97/146/69 95/143/67
f 82/115/54 98/147/70 97/148/69
f 98/147/70 82/115/54 81/114/53
f 97/148/69 98/147/70 99/149/71
f 97/146/69 99/150/71 95/143/67
f 99/150/71 100/151/72 95/143/67
f 95/152/67 100/153/72 94/139/66
f 100/153/72 101/154/73 94/139/66
f 94/139/66 101/154/73 93/136/65
f 101/154/73 102/155/74 93/136/65
f 93/136/65 102/155/74 92/134/64
f 101/156/73 103/157/75 102/158/74
f 103/157/75 101/156/73 100/159/72
f 103/160/75 100/151/72 104/161/76
f 100/151/72 99/150/71 104/161/76
f 99/150/71 105/162/77 104/161/76
f 105/162/77 99/150/71 98/163/70
f 104/161/76 105/162/77 106/164/78
f 104/161/76 106/164/78 103/160/75
f 106/165/78 107/166/79 103/157/75
f 107/166/79 108/167/80 103/157/75
f 103/157/75 108/167/80 102/158/74
f 102/158/74 108/167/80 92/168/64
f 108/169/80 109/170/81 92/133/64
f 92/133/64 109/170/81 91/131/63
f 108/169/80 107/171/79 109/170/81
f 91/131/63 109/170/81 110/172/82
f 107/171/79 110/172/82 109/170/81
f 91/131/63 110/172/82 81/173/53
f 110/172/82 111/174/83 81/173/53
f 111/174/83 110/172/82 112/175/84
f 112/175/84 110/172/82 107/171/79
f 111/176/83 112/177/84 113/178/85
f 111/176/83 113/178/85 114/179/86
f 111/180/83 114/181/86 81/114/53
f 81/114/53 114/181/86 98/147/70
f 98/163/70 114/182/86 105/162/77
f 105/162/77 114/182/86 113/183/85
f 105/162/77 113/183/85 106/164/78
