# Blender v2.90.1 OBJ File: 'untitled.blend'
# www.blender.org
mtllib CUT_BANANA_NXG.mtl
o CUT_BANANA_NXG0000
v 0.027863 0.007442 -0.026047
v 0.034180 0.018753 -0.012680
v 0.044800 0.000000 -0.025162
v 0.014847 0.017227 -0.026047
v 0.048157 0.011948 -0.012245
v 0.065979 -0.004837 -0.023849
v 0.067505 0.006054 -0.011482
v 0.091614 0.000500 -0.010315
v 0.090942 -0.008705 -0.021698
v 0.116211 -0.011261 -0.016907
v 0.116272 -0.004349 -0.008530
v 0.144775 -0.013268 -0.009438
v 0.145020 -0.009872 -0.005417
v 0.146362 -0.017578 -0.000235
v 0.144409 -0.019836 -0.009369
v 0.116211 -0.011261 -0.016907
v 0.116028 -0.022064 -0.016785
v 0.090942 -0.008705 -0.021698
v 0.089844 -0.023834 -0.021530
v 0.065979 -0.004837 -0.023849
v 0.063416 -0.022690 -0.023666
v 0.044800 0.000000 -0.025162
v 0.039276 -0.019547 -0.024963
v 0.027863 0.007442 -0.026047
v 0.017456 -0.011063 -0.025848
v 0.014847 0.017227 -0.026047
v 0.000000 0.000577 -0.025848
v -0.013527 0.018753 -0.025131
v 0.005665 0.031174 -0.025421
v -0.019760 0.040894 -0.023026
v 0.000782 0.045776 -0.024261
v -0.017670 0.064514 -0.019562
v 0.000242 0.064636 -0.020859
v -0.001796 0.078552 -0.014099
v -0.016602 0.078430 -0.014023
v -0.014893 0.105347 -0.013794
v -0.021484 0.105408 -0.008453
v -0.022552 0.078491 -0.008453
v -0.023285 0.064514 -0.010567
v -0.017670 0.064514 -0.019562
v -0.019760 0.040894 -0.023026
v -0.029266 0.037811 -0.012474
v -0.013527 0.018753 -0.025131
v -0.026230 0.010849 -0.012901
v 0.000000 0.000577 -0.025848
v -0.010368 -0.010567 -0.013046
v 0.010422 -0.023636 -0.013054
v 0.017456 -0.011063 -0.025848
v 0.035461 -0.032257 -0.012604
v 0.039276 -0.019547 -0.024963
v 0.061615 -0.034729 -0.011826
v 0.063416 -0.022690 -0.023666
v 0.088989 -0.033905 -0.010628
v 0.089844 -0.023834 -0.021530
v 0.115845 -0.029953 -0.008713
v 0.116028 -0.022064 -0.016785
v 0.144043 -0.024231 -0.005436
v 0.143921 -0.025818 -0.000204
v 0.115845 -0.029953 -0.008713
v 0.115723 -0.032684 -0.000229
v 0.088989 -0.033905 -0.010628
v 0.088623 -0.037476 -0.000257
v 0.061615 -0.034729 -0.011826
v 0.060852 -0.039001 -0.000288
v 0.035461 -0.032257 -0.012604
v 0.033966 -0.036926 -0.000307
v 0.010422 -0.023636 -0.013054
v 0.007465 -0.028702 -0.000317
v -0.010368 -0.010567 -0.013046
v -0.013626 -0.014130 -0.000313
v -0.029434 0.008530 -0.000330
v -0.026230 0.010849 -0.012901
v -0.033417 0.036835 -0.000341
v -0.029266 0.037811 -0.012474
v -0.026413 0.064636 -0.000323
v -0.023285 0.064514 -0.010567
v -0.024582 0.078552 -0.000266
v -0.024155 0.105469 -0.000263
v -0.009033 0.108826 -0.000155
v -0.021683 0.105408 0.007267
v -0.022812 0.078491 0.007267
v -0.026413 0.064636 -0.000323
v -0.016937 0.078430 0.012962
v -0.014526 0.105347 0.013565
v -0.004547 0.105469 0.013855
v 0.002428 0.105530 0.006847
v -0.001751 0.078552 0.013252
v 0.004070 0.078613 0.006851
v 0.005127 0.105591 -0.000859
v 0.002329 0.105530 -0.008522
v -0.003542 0.105469 -0.013878
v 0.003952 0.078613 -0.008522
v 0.006100 0.078674 -0.000859
v 0.009613 0.064758 -0.001171
v 0.009613 0.064758 -0.001171
v 0.008369 0.064697 0.009308
v 0.008369 0.064697 0.009308
v 0.014015 0.049591 -0.001364
v 0.011429 0.048920 0.011024
v 0.018631 0.039459 -0.001410
v 0.016342 0.037933 0.011398
v 0.026047 0.029922 -0.001431
v 0.024246 0.027802 0.011520
v 0.035675 0.021835 -0.001431
v 0.034424 0.019302 0.011520
v 0.048920 0.015434 -0.001384
v 0.048309 0.012627 0.011124
v 0.068237 0.009590 -0.001313
v 0.067566 0.006390 0.010399
v 0.091736 0.003239 -0.001198
v 0.091675 0.000452 0.009308
v 0.116211 -0.002121 -0.000963
v 0.116272 -0.004257 0.007641
v 0.145020 -0.008354 -0.000613
v 0.145020 -0.009651 0.004704
v 0.144775 -0.013329 0.008896
v 0.116272 -0.004257 0.007641
v 0.116211 -0.011498 0.016388
v 0.091675 0.000452 0.009308
v 0.091003 -0.009636 0.021194
v 0.065979 -0.005795 0.023758
v 0.067566 0.006390 0.010399
v 0.044769 -0.000948 0.025467
v 0.048309 0.012627 0.011124
v 0.027756 0.006882 0.026047
v 0.034424 0.019302 0.011520
v 0.014725 0.017075 0.025726
v 0.024246 0.027802 0.011520
v 0.005329 0.030914 0.025131
v 0.016342 0.037933 0.011398
v 0.000478 0.045746 0.023819
v 0.011429 0.048920 0.011024
v 0.000237 0.064636 0.020340
v -0.017334 0.064514 0.019409
v 0.000237 0.064636 0.020340
v 0.000478 0.045746 0.023819
v -0.019913 0.040894 0.022934
v 0.005329 0.030914 0.025131
v -0.014061 0.018250 0.024597
v 0.014725 0.017075 0.025726
v 0.000000 0.000577 0.025833
v 0.017456 -0.011063 0.025513
v 0.027756 0.006882 0.026047
v 0.039276 -0.019547 0.024323
v 0.044769 -0.000948 0.025467
v 0.063477 -0.023071 0.022934
v 0.065979 -0.005795 0.023758
v 0.089905 -0.024612 0.020737
v 0.091003 -0.009636 0.021194
v 0.116089 -0.023300 0.016037
v 0.116211 -0.011498 0.016388
v 0.144409 -0.020859 0.008698
v 0.144043 -0.024033 0.005188
v 0.116089 -0.023300 0.016037
v 0.115845 -0.030106 0.007843
v 0.089905 -0.024612 0.020737
v 0.088928 -0.034363 0.009201
v 0.063477 -0.023071 0.022934
v 0.061523 -0.035278 0.010284
v 0.039276 -0.019547 0.024323
v 0.035278 -0.032837 0.011002
v 0.017456 -0.011063 0.025513
v 0.010094 -0.024185 0.011391
v 0.000000 0.000577 0.025833
v -0.010582 -0.010948 0.011665
v -0.026428 0.009956 0.011276
v -0.014061 0.018250 0.024597
v -0.029785 0.037689 0.010902
v -0.019913 0.040894 0.022934
v -0.023895 0.064514 0.009209
v -0.017334 0.064514 0.019409
v -0.023895 0.064514 0.009209
v -0.029785 0.037689 0.010902
v -0.033417 0.036835 -0.000341
v -0.026428 0.009956 0.011276
v -0.029434 0.008530 -0.000330
v -0.013626 -0.014130 -0.000313
v -0.010582 -0.010948 0.011665
v 0.007465 -0.028702 -0.000317
v 0.010094 -0.024185 0.011391
v 0.033966 -0.036926 -0.000307
v 0.035278 -0.032837 0.011002
v 0.060852 -0.039001 -0.000288
v 0.061523 -0.035278 0.010284
v 0.088623 -0.037476 -0.000257
v 0.088928 -0.034363 0.009201
v 0.115723 -0.032684 -0.000229
v 0.115845 -0.030106 0.007843
v 0.116272 -0.004349 -0.008530
v 0.116211 -0.002121 -0.000963
v 0.091614 0.000500 -0.010315
v 0.091736 0.003239 -0.001198
v 0.067505 0.006054 -0.011482
v 0.068237 0.009590 -0.001313
v 0.048157 0.011948 -0.012245
v 0.048920 0.015434 -0.001384
v 0.034180 0.018753 -0.012680
v 0.035675 0.021835 -0.001431
v 0.023895 0.027390 -0.012680
v 0.026047 0.029922 -0.001431
v 0.015945 0.037659 -0.012543
v 0.018631 0.039459 -0.001410
v 0.011353 0.048798 -0.012131
v 0.014015 0.049591 -0.001364
v 0.007965 0.064697 -0.011116
v 0.007965 0.064697 -0.011116
v 0.000242 0.064636 -0.020859
v 0.011353 0.048798 -0.012131
v 0.000782 0.045776 -0.024261
v 0.015945 0.037659 -0.012543
v 0.005665 0.031174 -0.025421
v 0.023895 0.027390 -0.012680
vt 0.491455 0.125977
vt 0.491455 0.125977
vt 0.491211 0.125977
vt 0.491455 0.125977
vt 0.491455 0.125977
vt 0.491211 0.125977
vt 0.491211 0.125977
vt 0.491211 0.125977
vt 0.491211 0.125977
vt 0.491211 0.125977
vt 0.491211 0.125977
vt 0.491211 0.125977
vt 0.491211 0.125977
vt 0.491211 0.125977
vt 0.491211 0.125977
vt 0.491211 0.125977
vt 0.491211 0.125977
vt 0.491211 0.125977
vt 0.491211 0.125977
vt 0.491211 0.125977
vt 0.491211 0.125977
vt 0.491211 0.125977
vt 0.491455 0.125977
vt 0.491455 0.125977
vt 0.491455 0.125977
vt 0.491455 0.125977
vt 0.491455 0.125977
vt 0.491455 0.125977
vt 0.491455 0.125977
vt 0.491455 0.125977
vt 0.491455 0.125977
vt 0.491455 0.125977
vt 0.491455 0.125977
vt 0.491455 0.125977
vt 0.491455 0.125977
vt 0.491455 0.125977
vt 0.491455 0.125977
vt 0.491455 0.125977
vt 0.491455 0.125977
vt 0.491455 0.125977
vt 0.491455 0.125977
vt 0.491455 0.125977
vt 0.491455 0.125977
vt 0.491455 0.125977
vt 0.491455 0.125977
vt 0.491455 0.125977
vt 0.491455 0.125977
vt 0.491455 0.125977
vt 0.491455 0.125977
vt 0.491455 0.125977
vt 0.491211 0.125977
vt 0.491211 0.125977
vt 0.491211 0.125977
vt 0.491211 0.125977
vt 0.491211 0.125977
vt 0.491211 0.125977
vt 0.491211 0.125977
vt 0.491211 0.125977
vt 0.491211 0.125977
vt 0.491211 0.125977
vt 0.491211 0.125977
vt 0.491211 0.125977
vt 0.491211 0.125977
vt 0.491211 0.125977
vt 0.491455 0.125977
vt 0.491455 0.125977
vt 0.491455 0.125977
vt 0.491455 0.125977
vt 0.491455 0.125977
vt 0.491455 0.125977
vt 0.491455 0.125977
vt 0.491455 0.125977
vt 0.491455 0.125977
vt 0.491455 0.125977
vt 0.491455 0.125977
vt 0.491455 0.125977
vt 0.491455 0.125977
vt 0.491455 0.125977
vt 0.491455 0.125977
vt 0.491455 0.125977
vt 0.491455 0.125977
vt 0.491455 0.125977
vt 0.491455 0.125977
vt 0.491455 0.125977
vt 0.491455 0.125977
vt 0.491455 0.125977
vt 0.491455 0.125977
vt 0.491455 0.125977
vt 0.491455 0.125977
vt 0.491455 0.125977
vt 0.491455 0.125977
vt 0.491455 0.125977
vt 0.491455 0.125977
vt 0.491455 0.125977
vt 0.491455 0.125977
vt 0.491455 0.125977
vt 0.491455 0.125977
vt 0.491455 0.125977
vt 0.491455 0.125977
vt 0.491455 0.125977
vt 0.491455 0.125977
vt 0.491455 0.125977
vt 0.491455 0.125977
vt 0.491455 0.125977
vt 0.491455 0.125977
vt 0.491455 0.125977
vt 0.491455 0.125977
vt 0.491211 0.125977
vt 0.491455 0.125977
vt 0.491211 0.125977
vt 0.491455 0.125977
vt 0.491211 0.125977
vt 0.491455 0.125977
vt 0.491211 0.125977
vt 0.491455 0.125977
vt 0.491455 0.125977
vt 0.491455 0.125977
vt 0.491455 0.125977
vt 0.491455 0.125977
vt 0.491455 0.125977
vt 0.491455 0.125977
vt 0.491455 0.125977
vt 0.491455 0.125977
vt 0.491455 0.125977
vt 0.491455 0.125977
vt 0.491455 0.125977
vt 0.491455 0.125977
vt 0.491455 0.125977
vt 0.491455 0.125977
vt 0.491455 0.125977
vt 0.491455 0.125977
vt 0.491455 0.125977
vt 0.491455 0.125977
vt 0.491455 0.125977
vt 0.491455 0.125977
vt 0.491455 0.125977
vt 0.491455 0.125977
vt 0.491455 0.125977
vt 0.491455 0.125977
vt 0.491455 0.125977
vt 0.491455 0.125977
vt 0.491455 0.125977
vt 0.491455 0.125977
vt 0.491455 0.125977
vt 0.491455 0.125977
vt 0.491455 0.125977
vt 0.491455 0.125977
vt 0.491455 0.125977
vt 0.491455 0.125977
vt 0.491455 0.125977
vt 0.491455 0.125977
vt 0.491455 0.125977
vt 0.491455 0.125977
vt 0.491455 0.125977
vt 0.491455 0.125977
vt 0.491455 0.125977
vt 0.491455 0.125977
vt 0.491455 0.125977
vt 0.491455 0.125977
vt 0.491455 0.125977
vt 0.491455 0.125977
vt 0.491455 0.125977
vt 0.491455 0.125977
vt 0.491455 0.125977
vt 0.491455 0.125977
vt 0.491455 0.125977
vt 0.491455 0.125977
vt 0.491455 0.125977
vt 0.491455 0.125977
vt 0.491455 0.125977
vt 0.491455 0.125977
vt 0.491455 0.125977
vt 0.491455 0.125977
vt 0.491455 0.125977
vt 0.491455 0.125977
vt 0.491455 0.125977
vt 0.491455 0.125977
vt 0.491455 0.125977
vt 0.491455 0.125977
vt 0.491455 0.125977
vt 0.491455 0.125977
vt 0.491455 0.125977
vt 0.491211 0.125977
vt 0.491455 0.125977
vt 0.491211 0.125977
vt 0.491455 0.125977
vt 0.491211 0.125977
vt 0.491455 0.125977
vt 0.491211 0.125977
vt 0.491211 0.125977
vt 0.491211 0.125977
vt 0.491211 0.125977
vt 0.491211 0.125977
vt 0.491211 0.125977
vt 0.491455 0.125977
vt 0.491455 0.125977
vt 0.491455 0.125977
vt 0.491455 0.125977
vt 0.491455 0.125977
vt 0.491455 0.125977
vt 0.491455 0.125977
vt 0.491455 0.125977
vt 0.491455 0.125977
vt 0.491455 0.125977
vt 0.491455 0.125977
vt 0.491455 0.125977
vt 0.491455 0.125977
vt 0.491455 0.125977
vt 0.491455 0.125977
vt 0.491455 0.125977
vt 0.491455 0.125977
vt 0.491455 0.125977
vn 0.3795 0.6008 -0.7036
vn 0.2677 0.6694 -0.6930
vn 0.5053 0.4895 -0.7106
vn 0.2678 0.6694 -0.6930
vn 0.1979 0.7203 -0.6649
vn 0.1888 0.7473 -0.6371
vn 0.1973 0.7499 -0.6315
vn 0.7593 0.2294 -0.6090
vn 0.7358 0.5855 -0.3402
vn 0.9968 -0.0791 -0.0079
vn 0.7312 -0.2988 -0.6132
vn 0.2127 -0.0237 -0.9768
vn 0.2127 -0.0236 -0.9768
vn 0.1259 -0.0236 -0.9918
vn 0.0629 -0.0236 -0.9977
vn 0.0628 -0.0236 -0.9977
vn 0.0394 -0.0236 -0.9989
vn 0.0393 -0.0236 -0.9989
vn 0.0079 -0.0236 -0.9997
vn -0.0236 0.0000 -0.9997
vn -0.0550 0.0393 -0.9977
vn -0.0786 0.1101 -0.9908
vn -0.0706 0.2823 -0.9567
vn -0.0707 0.2823 -0.9567
vn 0.3622 0.2205 -0.9056
vn -0.4082 0.1805 -0.8949
vn -0.2675 0.6450 -0.7158
vn -0.6410 0.6410 -0.4221
vn -0.8639 0.0942 -0.4948
vn -0.7778 0.1964 -0.5971
vn -0.7518 0.0470 -0.6578
vn -0.6177 -0.2346 -0.7506
vn -0.4444 -0.4678 -0.7640
vn -0.2879 -0.5992 -0.7470
vn -0.1330 -0.6729 -0.7277
vn -0.1331 -0.6729 -0.7277
vn -0.0079 -0.7071 -0.7071
vn -0.0078 -0.7071 -0.7071
vn 0.0938 -0.7195 -0.6882
vn 0.1883 -0.7061 -0.6826
vn 0.6920 -0.6292 -0.3539
vn 0.6912 -0.7226 -0.0000
vn 0.1887 -0.9355 -0.2987
vn 0.1020 -0.9414 -0.3216
vn 0.1020 -0.9413 -0.3217
vn -0.0156 -0.9387 -0.3443
vn -0.0156 -0.9387 -0.3442
vn -0.1802 -0.9089 -0.3761
vn -0.3990 -0.8293 -0.3912
vn -0.6481 -0.6715 -0.3592
vn -0.8828 -0.3437 -0.3203
vn -0.9503 0.0550 -0.3063
vn -0.9446 0.1653 -0.2834
vn -0.9974 0.0707 -0.0157
vn -0.7637 0.6456 -0.0079
vn 0.0000 1.0000 -0.0079
vn -0.6551 0.6394 0.4025
vn -0.8751 0.1025 0.4730
vn -0.9522 0.1731 0.2518
vn -0.4176 0.1812 0.8904
vn -0.2922 0.6397 0.7109
vn 0.2837 0.6540 0.7013
vn 0.6572 0.6414 0.3959
vn 0.3872 0.2292 0.8930
vn 0.8717 0.1902 0.4517
vn 0.7604 0.6495 -0.0079
vn 0.6385 0.6464 -0.4178
vn 0.2676 0.6532 -0.7083
vn 0.8516 0.1892 -0.4889
vn 0.9861 0.1657 -0.0158
vn 0.9414 0.2611 -0.2136
vn 0.9527 0.2540 0.1667
vn 0.9527 0.2541 0.1667
vn 0.7465 0.2621 0.6115
vn 0.9279 0.3252 0.1824
vn 0.8378 0.5058 0.2055
vn 0.7038 0.6800 0.2056
vn 0.5291 0.8213 0.2132
vn 0.3573 0.9052 0.2303
vn 0.2699 0.9288 0.2540
vn 0.2216 0.9417 0.2532
vn 0.1982 0.9509 0.2377
vn 0.1981 0.9509 0.2377
vn 0.7415 0.6705 -0.0237
vn 0.7381 0.5953 0.3175
vn 0.7629 0.2305 0.6040
vn 0.1909 0.7475 0.6362
vn 0.1824 0.7375 0.6503
vn 0.2055 0.7115 0.6720
vn 0.2056 0.7115 0.6720
vn 0.2780 0.6672 0.6910
vn 0.3816 0.6042 0.6995
vn 0.3816 0.6042 0.6996
vn 0.5064 0.4982 0.7038
vn 0.5062 0.4983 0.7039
vn 0.6260 0.3645 0.6894
vn 0.7192 0.2292 0.6559
vn -0.0555 0.3014 0.9519
vn -0.0714 0.1110 0.9913
vn -0.0714 0.1110 0.9912
vn -0.0554 0.0396 0.9977
vn -0.0238 0.0079 0.9997
vn 0.0079 -0.0396 0.9992
vn 0.0317 -0.0633 0.9975
vn 0.0316 -0.0634 0.9975
vn 0.0711 -0.0632 0.9955
vn 0.1346 -0.0475 0.9898
vn 0.2142 -0.0397 0.9760
vn 0.7394 -0.3383 0.5821
vn 0.6884 -0.6488 0.3244
vn 0.1819 -0.7593 0.6248
vn 0.0868 -0.7575 0.6470
vn -0.0157 -0.7302 0.6831
vn -0.1415 -0.6841 0.7155
vn -0.2918 -0.6231 0.7257
vn -0.2918 -0.6231 0.7256
vn -0.4641 -0.4877 0.7394
vn -0.6464 -0.2601 0.7173
vn -0.7772 0.0392 0.6280
vn -0.7772 0.0393 0.6280
vn -0.7868 0.2046 0.5823
vn -0.7869 0.2046 0.5822
vn -0.9602 0.0472 0.2755
vn -0.9602 0.0472 0.2754
vn -0.8868 -0.3531 0.2982
vn -0.6535 -0.6771 0.3385
vn -0.6534 -0.6771 0.3385
vn -0.4080 -0.8317 0.3766
vn -0.1805 -0.9180 0.3531
vn -0.0157 -0.9437 0.3303
vn -0.0156 -0.9437 0.3303
vn 0.1025 -0.9460 0.3074
vn 0.1891 -0.9377 0.2915
vn 0.2062 0.9359 -0.2855
vn 0.2203 0.9285 -0.2990
vn 0.2609 0.9093 -0.3242
vn 0.3470 0.8832 -0.3155
vn 0.3470 0.8832 -0.3154
vn 0.5218 0.7984 -0.3004
vn 0.6895 0.6657 -0.2853
vn 0.8252 0.4919 -0.2777
vn 0.9183 0.3167 -0.2375
vn 0.7247 0.2599 -0.6381
vn 0.7247 0.2600 -0.6381
vn 0.7079 0.2281 -0.6685
vn 0.7078 0.2281 -0.6685
vn 0.6244 0.3557 -0.6955
usemtl mtl_127_105_5_46
s 1
f 1/1/1 2/2/1 3/3/2
f 2/2/1 1/1/1 4/4/3
f 3/3/2 2/2/1 5/5/4
f 3/3/2 5/5/4 6/6/5
f 6/6/5 5/5/4 7/7/5
f 6/6/5 7/7/5 8/8/6
f 6/6/5 8/8/6 9/9/6
f 9/9/6 8/8/6 10/10/7
f 10/10/7 8/8/6 11/11/7
f 10/10/7 11/11/7 12/12/8
f 12/12/8 11/11/7 13/13/9
f 12/12/8 13/13/9 14/14/10
f 12/12/8 14/14/10 15/15/11
f 12/12/8 15/15/11 16/16/12
f 15/15/11 17/17/13 16/16/12
f 16/16/12 17/17/13 18/18/14
f 17/17/13 19/19/14 18/18/14
f 18/18/14 19/19/14 20/20/15
f 19/19/14 21/21/16 20/20/15
f 20/20/15 21/21/16 22/22/17
f 21/21/16 23/23/18 22/22/17
f 22/22/17 23/23/18 24/24/19
f 24/24/19 23/23/18 25/25/19
f 24/24/19 25/25/19 26/26/20
f 26/26/20 25/25/19 27/27/20
f 26/26/20 27/27/20 28/28/21
f 26/26/20 28/28/21 29/29/21
f 29/29/21 28/28/21 30/30/22
f 29/29/21 30/30/22 31/31/22
f 31/31/22 30/30/22 32/32/23
f 31/31/22 32/32/23 33/33/24
f 33/33/24 32/32/23 34/34/25
f 34/34/25 32/32/23 35/35/26
f 34/34/25 35/35/26 36/36/27
f 36/36/27 35/35/26 37/37/28
f 35/35/26 38/38/29 37/37/28
f 38/38/29 35/35/26 39/39/30
f 35/35/26 40/40/30 39/39/30
f 40/40/30 41/41/31 39/39/30
f 41/41/31 42/42/31 39/39/30
f 42/42/31 41/41/31 43/43/32
f 42/42/31 43/43/32 44/44/32
f 43/43/32 45/45/33 44/44/32
f 45/45/33 46/46/33 44/44/32
f 46/46/33 45/45/33 47/47/34
f 45/45/33 48/48/34 47/47/34
f 47/47/34 48/48/34 49/49/35
f 48/48/34 50/50/36 49/49/35
f 49/49/35 50/50/36 51/51/37
f 51/51/37 50/50/36 52/52/38
f 51/51/37 52/52/38 53/53/39
f 53/53/39 52/52/38 54/54/39
f 53/53/39 54/54/39 55/55/40
f 55/55/40 54/54/39 56/56/40
f 55/55/40 56/56/40 15/15/11
f 55/55/40 15/15/11 57/57/41
f 57/57/41 15/15/11 14/14/10
f 57/57/41 14/14/10 58/58/42
f 57/57/41 58/58/42 59/59/43
f 58/58/42 60/60/43 59/59/43
f 59/59/43 60/60/43 61/61/44
f 60/60/43 62/62/45 61/61/44
f 61/61/44 62/62/45 63/63/46
f 62/62/45 64/64/47 63/63/46
f 63/63/46 64/64/47 65/65/48
f 64/64/47 66/66/48 65/65/48
f 65/65/48 66/66/48 67/67/49
f 67/67/49 66/66/48 68/68/49
f 67/67/49 68/68/49 69/69/50
f 69/69/50 68/68/49 70/70/50
f 69/69/50 70/70/50 71/71/51
f 69/69/50 71/71/51 72/72/51
f 72/72/51 71/71/51 73/73/52
f 72/72/51 73/73/52 74/74/52
f 74/74/52 73/73/52 75/75/53
f 74/74/52 75/75/53 76/76/53
f 76/76/53 75/75/53 38/38/29
f 38/38/29 75/75/53 77/77/54
f 38/38/29 77/77/54 37/37/28
f 37/37/28 77/77/54 78/78/55
f 37/37/28 78/78/55 79/79/56
f 37/37/28 79/79/56 36/36/27
f 79/79/56 78/78/55 80/80/57
f 78/78/55 77/77/54 80/80/57
f 77/77/54 81/81/58 80/80/57
f 81/81/58 77/77/54 82/82/59
f 80/80/57 81/81/58 83/83/60
f 80/80/57 83/83/60 84/84/61
f 80/80/57 84/84/61 79/79/56
f 79/79/56 84/84/61 85/85/62
f 84/84/61 83/83/60 85/85/62
f 79/79/56 85/85/62 86/86/63
f 85/85/62 87/87/64 86/86/63
f 87/87/64 85/85/62 83/83/60
f 86/86/63 87/87/64 88/88/65
f 86/86/63 88/88/65 89/89/66
f 86/86/63 89/89/66 79/79/56
f 79/79/56 89/89/66 90/90/67
f 79/79/56 90/90/67 91/91/68
f 79/79/56 91/91/68 36/36/27
f 91/91/68 34/34/25 36/36/27
f 34/34/25 91/91/68 90/90/67
f 34/34/25 90/90/67 92/92/69
f 90/90/67 89/89/66 92/92/69
f 89/89/66 93/93/70 92/92/69
f 93/93/70 89/89/66 88/88/65
f 92/92/69 93/93/70 94/94/71
f 93/93/70 88/88/65 95/95/72
f 88/88/65 96/96/73 95/95/72
f 88/88/65 87/87/64 97/97/74
f 95/95/72 96/96/73 98/98/75
f 96/96/73 99/99/75 98/98/75
f 98/98/75 99/99/75 100/100/76
f 99/99/75 101/101/76 100/100/76
f 100/100/76 101/101/76 102/102/77
f 101/101/76 103/103/77 102/102/77
f 102/102/77 103/103/77 104/104/78
f 103/103/77 105/105/78 104/104/78
f 104/104/78 105/105/78 106/106/79
f 105/105/78 107/107/79 106/106/79
f 106/106/79 107/107/79 108/108/80
f 108/108/80 107/107/79 109/109/80
f 108/108/80 109/109/80 110/110/81
f 110/110/81 109/109/80 111/111/81
f 110/110/81 111/111/81 112/112/82
f 112/112/82 111/111/81 113/113/83
f 112/112/82 113/113/83 114/114/84
f 114/114/84 113/113/83 115/115/85
f 114/114/84 115/115/85 14/14/10
f 14/14/10 115/115/85 116/116/86
f 115/115/85 117/117/87 116/116/86
f 117/117/87 118/118/87 116/116/86
f 118/118/87 117/117/87 119/119/88
f 118/118/87 119/119/88 120/120/88
f 120/120/88 119/119/88 121/121/89
f 119/119/88 122/122/90 121/121/89
f 121/121/89 122/122/90 123/123/91
f 122/122/90 124/124/91 123/123/91
f 123/123/91 124/124/91 125/125/92
f 125/125/92 124/124/91 126/126/93
f 125/125/92 126/126/93 127/127/94
f 127/127/94 126/126/93 128/128/95
f 127/127/94 128/128/95 129/129/96
f 129/129/96 128/128/95 130/130/96
f 129/129/96 130/130/96 131/131/97
f 131/131/97 130/130/96 132/132/97
f 131/131/97 132/132/97 133/133/74
f 133/133/74 132/132/97 97/97/74
f 133/133/74 97/97/74 87/87/64
f 87/87/64 83/83/60 134/134/98
f 87/87/64 134/134/98 135/135/98
f 135/135/98 134/134/98 136/136/99
f 134/134/98 137/137/100 136/136/99
f 136/136/99 137/137/100 138/138/101
f 137/137/100 139/139/101 138/138/101
f 138/138/101 139/139/101 140/140/102
f 139/139/101 141/141/102 140/140/102
f 141/141/102 142/142/103 140/140/102
f 142/142/103 143/143/103 140/140/102
f 143/143/103 142/142/103 144/144/104
f 143/143/103 144/144/104 145/145/105
f 145/145/105 144/144/104 146/146/106
f 145/145/105 146/146/106 147/147/106
f 147/147/106 146/146/106 148/148/107
f 147/147/106 148/148/107 149/149/107
f 149/149/107 148/148/107 150/150/108
f 149/149/107 150/150/108 151/151/108
f 151/151/108 150/150/108 152/152/109
f 151/151/108 152/152/109 116/116/86
f 152/152/109 14/14/10 116/116/86
f 14/14/10 152/152/109 153/153/110
f 152/152/109 154/154/111 153/153/110
f 154/154/111 155/155/111 153/153/110
f 155/155/111 154/154/111 156/156/112
f 155/155/111 156/156/112 157/157/112
f 156/156/112 158/158/113 157/157/112
f 158/158/113 159/159/113 157/157/112
f 159/159/113 158/158/113 160/160/114
f 159/159/113 160/160/114 161/161/114
f 160/160/114 162/162/115 161/161/114
f 162/162/115 163/163/116 161/161/114
f 163/163/116 162/162/115 164/164/117
f 163/163/116 164/164/117 165/165/117
f 165/165/117 164/164/117 166/166/118
f 166/166/118 164/164/117 167/167/118
f 166/166/118 167/167/118 168/168/119
f 168/168/119 167/167/118 169/169/120
f 168/168/119 169/169/120 170/170/121
f 170/170/121 169/169/120 171/171/122
f 170/170/121 171/171/122 83/83/60
f 170/170/121 83/83/60 81/81/58
f 81/81/58 82/82/59 172/172/59
f 172/172/59 82/82/59 173/173/123
f 82/82/59 174/174/124 173/173/123
f 173/173/123 174/174/124 175/175/125
f 174/174/124 176/176/125 175/175/125
f 176/176/125 177/177/126 175/175/125
f 177/177/126 178/178/127 175/175/125
f 178/178/127 177/177/126 179/179/128
f 178/178/127 179/179/128 180/180/128
f 180/180/128 179/179/128 181/181/129
f 180/180/128 181/181/129 182/182/129
f 182/182/129 181/181/129 183/183/130
f 182/182/129 183/183/130 184/184/131
f 184/184/131 183/183/130 185/185/132
f 184/184/131 185/185/132 186/186/132
f 186/186/132 185/185/132 187/187/133
f 186/186/132 187/187/133 188/188/133
f 188/188/133 187/187/133 58/58/42
f 188/188/133 58/58/42 153/153/110
f 153/153/110 58/58/42 14/14/10
f 14/14/10 13/13/9 114/114/84
f 13/13/9 189/189/134 114/114/84
f 189/189/134 190/190/134 114/114/84
f 190/190/134 189/189/134 191/191/135
f 190/190/134 191/191/135 192/192/135
f 191/191/135 193/193/136 192/192/135
f 193/193/136 194/194/136 192/192/135
f 194/194/136 193/193/136 195/195/137
f 194/194/136 195/195/137 196/196/138
f 195/195/137 197/197/139 196/196/138
f 197/197/139 198/198/139 196/196/138
f 198/198/139 197/197/139 199/199/140
f 198/198/139 199/199/140 200/200/140
f 200/200/140 199/199/140 201/201/141
f 200/200/140 201/201/141 202/202/141
f 202/202/141 201/201/141 203/203/142
f 202/202/141 203/203/142 204/204/142
f 204/204/142 203/203/142 205/205/71
f 204/204/142 205/205/71 94/94/71
f 94/94/71 205/205/71 92/92/69
f 92/92/69 206/206/143 34/34/25
f 206/206/143 207/207/144 34/34/25
f 207/207/144 206/206/143 208/208/145
f 207/207/144 208/208/145 209/209/146
f 208/208/145 210/210/147 209/209/146
f 210/210/147 211/211/147 209/209/146
f 211/211/147 210/210/147 212/212/3
f 211/211/147 212/212/3 4/4/3
f 212/212/3 2/2/1 4/4/3
